PathFileType	4	(X/Y/Z)	s07c0302.trc
DataRate	CameraRate	NumFrames	NumMarkers	Units	OrigDataRate	OrigDataStartFrame	OrigNumFrames
200	200	5	48	mm	200	250	2000
Frame#	Time	racr			lacr			c7			jug			rlel			rdr			llel			ldr			s2			lic			ric			lasi			rasi			rpsi			lpsi			rgt			lgt			rth1			rth2			rth3			rth4			rlfc			rmfc			rsh1			rsh2			rsh3			rsh4			rlmal			rcal			rtoe			rmt5			lth1			lth2			lth4			lth3			llfc			lmfc			lsh1			lsh2			lsh3			lsh4			llmal			lcal			ltoe			lmt5			SBIKE			LBIKE			RBIKE			
		X1	Y1	Z1	X2	Y2	Z2	X3	Y3	Z3	X4	Y4	Z4	X5	Y5	Z5	X6	Y6	Z6	X7	Y7	Z7	X8	Y8	Z8	X9	Y9	Z9	X10	Y10	Z10	X11	Y11	Z11	X12	Y12	Z12	X13	Y13	Z13	X14	Y14	Z14	X15	Y15	Z15	X16	Y16	Z16	X17	Y17	Z17	X18	Y18	Z18	X19	Y19	Z19	X20	Y20	Z20	X21	Y21	Z21	X22	Y22	Z22	X23	Y23	Z23	X24	Y24	Z24	X25	Y25	Z25	X26	Y26	Z26	X27	Y27	Z27	X28	Y28	Z28	X29	Y29	Z29	X30	Y30	Z30	X31	Y31	Z31	X32	Y32	Z32	X33	Y33	Z33	X34	Y34	Z34	X35	Y35	Z35	X36	Y36	Z36	X37	Y37	Z37	X38	Y38	Z38	X39	Y39	Z39	X40	Y40	Z40	X41	Y41	Z41	X42	Y42	Z42	X43	Y43	Z43	X44	Y44	Z44	X45	Y45	Z45	X46	Y46	Z46	X47	Y47	Z47	X48	Y48	Z48	
250	1.2500	492.384901	1327.038922	-90.130278	466.999388	1323.100659	-378.619355	470.553060	1353.912982	-237.134054	411.555221	1223.825428	-232.933946	470.024698	1016.009196	66.327659	709.882597	914.449973	-58.897041	461.880519	1029.302575	-536.521100	712.112055	912.139694	-431.022960	-133.908494	1222.452613	-246.382618	27.838940	1226.587507	-364.042953	42.693159	1215.053907	-92.222389	52.227268	1148.129370	-361.254187	37.810520	1161.617928	-108.641150	-98.679271	1254.051250	-193.531002	-80.328744	1262.020390	-300.444241	-43.493789	1129.102668	-44.644468	-49.340466	1102.851225	-421.167513	93.693717	1063.430189	-49.322213	178.837016	1045.185137	-61.662005	245.706668	991.839708	-59.463594	191.627861	1074.713039	-79.780642	362.240045	908.218906	-96.535865	354.965601	892.974915	-202.735669	316.909379	771.873755	-72.199045	306.729717	683.941332	-92.506450	260.240050	611.959090	-86.283500	322.173082	683.717811	-128.715246	207.062879	485.445371	-87.654964	140.986597	441.745637	-115.234140	431.156957	430.381411	-130.538999	355.111179	394.603845	-59.159483	7.098442	995.029101	-429.158849	77.582957	942.100390	-433.255544	106.354214	964.103918	-426.182877	112.678325	860.181731	-430.736946	208.346829	703.594664	-399.154468	197.823323	688.445860	-301.264233	116.686057	583.100787	-417.928690	80.737976	508.019512	-395.412999	10.223143	452.505278	-403.010433	83.834293	510.647751	-353.822725	-101.106232	336.711349	-378.418968	-158.823498	324.164403	-362.918023	122.938751	258.245853	-360.341280	39.406397	246.551052	-424.149574	-263.511333	966.473980	-238.088553	-83.279227	79.160833	-438.022089	-83.683057	79.113756	-40.405147	
251	1.2550	492.275377	1327.114992	-90.103169	466.957035	1323.266460	-378.566322	470.429030	1354.098468	-237.065179	411.418888	1223.986596	-232.967856	469.975650	1016.050925	66.269431	709.896169	914.468212	-58.935675	461.978262	1029.469702	-536.507292	712.120022	912.132738	-431.010238	-133.988698	1222.430005	-246.410129	27.735385	1226.596409	-364.068911	42.272598	1214.839499	-91.627245	52.161169	1148.160673	-361.261188	38.112875	1161.815711	-108.212795	-98.552566	1254.149837	-193.685840	-80.436192	1262.010708	-300.485672	-43.551247	1129.091597	-44.653098	-49.387823	1102.834495	-421.180681	93.653588	1063.479410	-49.344457	178.793266	1045.265049	-61.691603	245.706572	991.936070	-59.471133	191.586079	1074.767384	-79.853294	362.223144	908.426957	-96.468909	354.985177	893.094424	-202.754184	316.934810	772.009243	-72.212587	306.728402	684.064121	-92.520438	260.294790	612.064601	-86.297948	322.201085	683.815275	-128.722478	207.077121	485.566378	-87.651373	140.988055	441.980074	-115.221534	431.156355	430.403836	-130.533286	355.113331	394.673453	-59.175472	7.029911	995.000136	-429.181123	77.520725	942.048886	-433.248341	106.273351	964.103038	-426.235557	112.582796	860.156840	-430.735758	208.244666	703.571867	-399.170190	197.741750	688.423544	-301.274387	116.632021	583.038031	-417.936168	80.687333	507.988115	-395.412385	10.257671	452.327649	-402.571242	83.799325	510.585397	-353.826561	-101.102486	336.635222	-378.423691	-158.824564	324.052987	-362.905044	122.958450	258.215512	-360.335701	39.420593	246.467401	-424.168563	-263.529974	966.468710	-238.071886	-83.286785	79.157058	-438.016461	-83.650188	79.056953	-40.397518	
252	1.2600	492.156045	1327.184623	-90.073000	466.900895	1323.428883	-378.509115	470.311949	1354.207865	-237.062923	411.299803	1224.134816	-232.952697	469.952586	1016.088729	66.215533	709.883335	914.503112	-58.936958	462.062291	1029.634187	-536.513982	712.135539	912.171037	-431.013438	-134.067239	1222.408784	-246.433180	27.640946	1226.649793	-364.102447	42.163557	1214.859672	-91.636624	52.105898	1148.192212	-361.269107	38.050487	1161.843835	-108.232969	-98.658342	1254.128455	-193.687855	-80.542290	1261.998396	-300.496454	-43.604947	1129.088559	-44.676720	-49.493567	1102.812915	-421.190494	93.631896	1063.532979	-49.371569	178.778401	1045.329755	-61.715749	245.693763	992.038036	-59.498635	191.553814	1074.856892	-79.875194	362.232149	908.585572	-96.483017	355.010742	893.188693	-202.732293	316.965819	772.147980	-72.212108	306.664552	684.275837	-92.553237	260.317830	612.223042	-86.279838	322.226651	683.940352	-128.733326	207.111091	485.708452	-87.631098	141.012102	442.128092	-115.251978	431.156340	430.416263	-130.545136	355.080792	394.739655	-59.161943	6.941858	994.983834	-429.181733	77.449627	942.003531	-433.267757	106.194087	964.037529	-426.249937	112.500830	860.114017	-430.739630	208.132669	703.538374	-399.206092	197.655214	688.373019	-301.316872	116.558221	582.987901	-417.969562	80.629079	507.932126	-395.414393	10.189345	452.276225	-402.555757	83.751572	510.552373	-353.826957	-101.154197	336.509131	-378.419815	-158.852512	323.901300	-362.853460	122.959885	258.187116	-360.337157	39.421161	246.407324	-424.172076	-263.537031	966.480920	-238.090414	-83.292078	79.173042	-437.992139	-83.688516	79.108347	-40.403510	
253	1.2650	492.040545	1327.226275	-90.057755	466.853784	1323.567989	-378.464623	470.233105	1354.343854	-237.025128	411.219963	1224.243799	-232.942841	469.907539	1016.109520	66.175687	709.890639	914.504947	-58.949019	462.137040	1029.780886	-536.529559	712.133853	912.168496	-431.004838	-134.154821	1222.365119	-246.441985	27.609113	1226.684659	-364.157130	42.390558	1215.137389	-92.248797	52.033718	1148.212744	-361.279166	37.988760	1161.845497	-108.225225	-98.755052	1254.108515	-193.704705	-80.655977	1261.978756	-300.520070	-43.652063	1129.089630	-44.667012	-49.589546	1102.758838	-421.165388	93.617637	1063.585007	-49.381439	178.773004	1045.413418	-61.736139	245.686504	992.158188	-59.507598	191.508732	1074.933522	-79.903223	362.318421	908.707406	-96.582196	355.063283	893.288645	-202.703496	316.990887	772.284099	-72.211034	306.697430	684.428204	-92.563316	260.367460	612.333219	-86.291498	322.261353	684.052072	-128.718155	207.145802	485.855284	-87.639223	141.029359	442.277890	-115.268925	431.154999	430.436692	-130.534400	355.081113	394.810645	-59.170749	6.854636	994.940057	-429.208278	77.367297	941.964219	-433.262043	106.112550	964.011290	-426.243021	112.414926	860.063946	-430.723128	208.030434	703.515445	-399.260362	197.543860	688.341561	-301.344532	116.473681	582.929188	-417.963011	80.551915	507.887424	-395.438779	10.142371	452.215870	-402.548573	83.724654	510.528932	-353.846052	-101.151184	336.435886	-378.423211	-158.860027	323.764367	-362.859719	122.966319	258.159553	-360.340874	39.425311	246.358802	-424.179792	-263.536773	966.467431	-238.084090	-83.283831	79.157607	-438.014135	-83.671548	79.089109	-40.419626	
254	1.2700	491.922178	1327.272257	-89.999191	466.816172	1323.678990	-378.435645	470.140235	1354.438143	-236.969885	411.140154	1224.352781	-232.933000	469.868238	1016.126785	66.143653	709.889687	914.507489	-58.951184	462.206248	1029.940950	-536.526493	712.137133	912.199150	-431.009710	-134.239243	1222.342659	-246.441894	27.514905	1226.734126	-364.191823	42.286659	1215.160880	-92.268398	51.973949	1148.239574	-361.281805	37.923053	1161.855553	-108.233010	-98.869925	1254.094350	-193.717686	-80.742843	1261.960604	-300.541376	-43.699293	1129.072930	-44.689603	-49.662668	1102.743687	-421.166933	93.566163	1063.624390	-49.398591	178.759024	1045.482823	-61.754039	245.690543	992.254811	-59.519670	191.492585	1075.010093	-79.937410	362.356202	908.824387	-96.603359	355.091594	893.379754	-202.705124	317.020815	772.422454	-72.218541	306.699915	684.584951	-92.574907	260.375577	612.478399	-86.287581	322.302614	684.153910	-128.733765	207.164369	485.991966	-87.633584	141.038688	442.435234	-115.281905	431.154868	430.448971	-130.545857	355.071265	394.862882	-59.177853	6.758884	994.906682	-429.219579	77.283800	941.910491	-433.257480	106.024072	963.982538	-426.281015	112.319294	860.028812	-430.733376	207.889443	703.467526	-399.273533	197.443165	688.295066	-301.374333	116.373771	582.878073	-417.984721	80.471389	507.822608	-395.425887	10.077743	452.161620	-402.563189	83.643553	510.477802	-353.856848	-101.169465	336.261292	-378.451660	-158.882565	323.601768	-362.859857	122.969202	258.158885	-360.349920	39.449582	246.317681	-424.176475	-263.540268	966.465939	-238.099431	-83.283513	79.166548	-437.989107	-83.654566	79.036580	-40.428318	
